Coordinates
version=1
nRows=16
nColumns=22
inDegrees=yes

Units are S.I. units (second, meters, Newtons, ...)
If the header above contains a line with 'inDegrees', this indicates whether rotational values are in degrees (yes) or radians (no).

endheader
time	pelvis_tilt	pelvis_list	pelvis_rotation	pelvis_tx	pelvis_ty	pelvis_tz	hip_flexion_r	hip_adduction_r	hip_rotation_r	knee_angle_r	ankle_angle_r	subtalar_angle_r	hip_flexion_l	hip_adduction_l	hip_rotation_l	knee_angle_l	ankle_angle_l	subtalar_angle_l	lumbar_extension	lumbar_bending	lumbar_rotation
      5.45000000	      3.29676194	     -1.05955473	    294.46505641	     -0.52587931	      1.07557064	      0.59993910	     18.64749391	     -7.74733709	      2.78118145	    -53.89304188	      3.80736722	      5.63331772	     -0.70664460	     11.72450146	     -3.65264774	    -10.09612115	      9.42326135	    -12.92454791	     -5.94804929	     -5.69298765	     -7.93653385
      5.46000000	      3.25249966	     -1.08102531	    295.46030604	     -0.52177953	      1.07557835	      0.60652443	     19.28947878	     -7.65345127	      2.76535298	    -52.61149200	      4.30454541	      5.08219813	     -1.28961546	     11.64779972	     -2.60268871	    -10.07565619	      9.67785111	    -12.94893593	     -5.94634603	     -5.55893356	     -8.22554192
      5.47000000	      3.20048211	     -1.09098540	    296.41066132	     -0.51782077	      1.07550857	      0.61311386	     19.90711833	     -7.51171841	      2.81134011	    -51.23359391	      4.75586840	      4.61576674	     -1.83810695	     11.54704580	     -1.58362740	    -10.07621159	      9.92083767	    -12.99217839	     -5.92193880	     -5.43778034	     -8.45651954
      5.48000000	      3.14195645	     -1.09039727	    297.31495255	     -0.51398757	      1.07536367	      0.61973250	     20.49673369	     -7.31613368	      2.94216314	    -49.76723562	      5.14419119	      4.23383187	     -2.36687827	     11.42620555	     -0.58525213	    -10.07462396	     10.16030234	    -13.04965327	     -5.87301133	     -5.32848035	     -8.63641726
      5.49000000	      3.07744652	     -1.08509206	    298.17612483	     -0.51027798	      1.07514760	      0.62638056	     21.04778812	     -7.06243363	      3.16808396	    -48.21704866	      5.49250104	      3.92754758	     -2.87471873	     11.28339820	      0.38158282	    -10.08390104	     10.39635916	    -13.11472861	     -5.80775006	     -5.23040068	     -8.76079314
      5.50000000	      2.98491506	     -1.04849922	    298.99753054	     -0.50668055	      1.07480269	      0.63304445	     21.59635704	     -6.74294865	      3.50621361	    -46.59313341	      5.80313169	      3.79241122	     -3.31624827	     11.11412958	      1.31573665	    -10.12094087	     10.64790446	    -13.16102449	     -5.68854595	     -5.13207348	     -8.83445630
      5.51000000	      2.93202301	     -1.05752732	    299.79297182	     -0.50313461	      1.07447809	      0.63977506	     22.01677401	     -6.39389028	      3.93888696	    -44.88575267	      6.09873917	      3.58713577	     -3.83385643	     10.94233004	      2.23903327	    -10.12639865	     10.89856980	    -13.22924374	     -5.62753652	     -5.05789549	     -8.88194784
      5.52000000	      2.83365430	     -1.01491574	    300.56284869	     -0.49966247	      1.07397537	      0.64651304	     22.45775848	     -5.99037770	      4.47581049	    -43.11775043	      6.35329853	      3.58087609	     -4.24290168	     10.74165436	      3.11136134	    -10.18604185	     11.18632480	    -13.26231597	     -5.48375336	     -4.97727956	     -8.89088377
      5.53000000	      2.75549001	     -0.99357964	    301.32653289	     -0.49618440	      1.07344151	      0.65330223	     22.79853120	     -5.57656074	      5.08461832	    -41.27741154	      6.59213544	      3.64551125	     -4.68888495	     10.53481280	      3.96746431	    -10.22809135	     11.50163999	    -13.29203827	     -5.36427494	     -4.90727029	     -8.91916227
      5.54000000	      2.66506608	     -0.97108482	    302.08783949	     -0.49269186	      1.07281686	      0.66009728	     23.08215646	     -5.15147941	      5.73738319	    -39.37241877	      6.80072032	      3.81627492	     -5.10559801	     10.30746850	      4.80233234	    -10.30263431	     11.84914781	    -13.31371748	     -5.23317166	     -4.82758767	     -8.92956127
      5.55000000	      2.59705898	     -0.97409156	    302.84820193	     -0.48916870	      1.07216444	      0.66692684	     23.26283069	     -4.74608887	      6.41167009	    -37.40241686	      6.99544150	      4.17305678	     -5.55714097	     10.07545841	      5.62614862	    -10.37420104	     12.21392534	    -13.32227045	     -5.13733874	     -4.75740882	     -8.94199496
      5.56000000	      2.48616447	     -0.94656505	    303.62606546	     -0.48558151	      1.07135653	      0.67373830	     23.42904935	     -4.35415853	      7.06143553	    -35.36831951	      7.13146419	      4.54420606	     -5.92704447	      9.81480234	      6.41574839	    -10.49449712	     12.63321603	    -13.34007996	     -4.98268136	     -4.65952439	     -8.99733705
      5.57000000	      2.40259731	     -0.95632938	    304.40848957	     -0.48192414	      1.07053769	      0.68054673	     23.48175974	     -4.01029774	      7.66659132	    -33.27011642	      7.26258233	      5.11886782	     -6.34230193	      9.55245576	      7.21949337	    -10.61890778	     13.05213042	    -13.34554101	     -4.88368864	     -4.56418204	     -9.02988149
      5.58000000	      2.29770265	     -0.96293959	    305.21033815	     -0.47817856	      1.06962060	      0.68732308	     23.48366846	     -3.70673341	      8.18771923	    -31.10329259	      7.34796208	      5.70168262	     -6.71809062	      9.26872286	      8.00224604	    -10.78253406	     13.50222128	    -13.36119799	     -4.76944749	     -4.44391502	     -9.09463761
      5.59000000	      2.18985562	     -0.98149475	    306.02422078	     -0.47433662	      1.06864421	      0.69406478	     23.41450771	     -3.45417897	      8.61112034	    -28.87292850	      7.40677541	      6.31858566	     -7.08591523	      8.97314705	      8.77496482	    -10.97105283	     13.96407447	    -13.38368737	     -4.66768689	     -4.30566746	     -9.16399280
      5.60000000	      2.08503777	     -1.00944580	    306.84547799	     -0.47039548	      1.06761293	      0.70077243	     23.27953497	     -3.25718792	      8.92899797	    -26.59181472	      7.44616522	      6.94362490	     -7.44931440	      8.67287516	      9.53148142	    -11.18054923	     14.42673435	    -13.41366053	     -4.57786353	     -4.15596198	     -9.22843185
